<svg width="32" height="32" viewBox="0 0 32 32" fill="none" xmlns="http://www.w3.org/2000/svg">
  <rect width="32" height="32" rx="8" fill="#F97316"/>
  <path d="M9 10C9 8.89543 9.89543 8 11 8H21C22.1046 8 23 8.89543 23 10V22C23 23.1046 22.1046 24 21 24H11C9.89543 24 9 23.1046 9 22V10Z" fill="white" fillOpacity="0.3"/>
  <path d="M13 16C13 14.8954 13.8954 14 15 14H17C18.1046 14 19 14.8954 19 16V20C19 21.1046 18.1046 22 17 22H15C13.8954 22 13 21.1046 13 20V16Z" fill="white"/>
  <circle cx="16" cy="12" r="2" fill="white"/>
</svg> 